<svg xmlns="http://www.w3.org/2000/svg" height="40" viewBox="0 -960 960 960" width="40"><path d="M318.515-300.41q11.818 0 19.728-7.964 7.911-7.965 7.911-19.782 0-11.818-7.965-19.728-7.964-7.911-19.782-7.911-11.817 0-19.728 7.964-7.91 7.965-7.91 19.783 0 11.817 7.964 19.728 7.964 7.91 19.782 7.91Zm0-151.898q11.818 0 19.728-7.964 7.911-7.964 7.911-19.782t-7.965-19.728q-7.964-7.91-19.782-7.91-11.817 0-19.728 7.964-7.91 7.964-7.91 19.782t7.964 19.728q7.964 7.91 19.782 7.91Zm0-151.897q11.818 0 19.728-7.964 7.911-7.965 7.911-19.782 0-11.818-7.965-19.729-7.964-7.91-19.782-7.91-11.817 0-19.728 7.964-7.91 7.965-7.91 19.782 0 11.818 7.964 19.729 7.964 7.91 19.782 7.91Zm126.921 293.026h216.513v-33.847H445.436v33.847Zm0-151.898h216.513v-33.846H445.436v33.846Zm0-151.897h216.513v-33.847H445.436v33.847ZM218.461-160q-24.577 0-41.519-16.942Q160-193.884 160-218.461v-523.078q0-24.577 16.942-41.519Q193.884-800 218.461-800h523.078q24.577 0 41.519 16.942Q800-766.116 800-741.539v523.078q0 24.577-16.942 41.519Q766.116-160 741.539-160H218.461Zm0-33.846h523.078q9.231 0 16.923-7.692 7.692-7.692 7.692-16.923v-523.078q0-9.231-7.692-16.923-7.692-7.692-16.923-7.692H218.461q-9.231 0-16.923 7.692-7.692 7.692-7.692 16.923v523.078q0 9.231 7.692 16.923 7.692 7.692 16.923 7.692Zm-24.615-572.308v572.308-572.308Z"/></svg>