<svg xmlns="http://www.w3.org/2000/svg" height="40" viewBox="0 -960 960 960" width="40"><path d="M156.923-220.82q-7.192 0-12.058-4.91Q140-230.639 140-237.896q0-7.258 4.865-12.014 4.866-4.757 12.058-4.757H325.18q7.192 0 12.057 4.91 4.866 4.909 4.866 12.166 0 7.258-4.866 12.014-4.865 4.757-12.057 4.757H156.923Zm0-484.513q-7.192 0-12.058-4.91Q140-715.152 140-722.409q0-7.258 4.865-12.014 4.866-4.757 12.058-4.757h330.205q7.193 0 12.058 4.91 4.866 4.909 4.866 12.166 0 7.258-4.866 12.014-4.865 4.757-12.058 4.757H156.923ZM472.719-140q-7.258 0-12.014-4.865-4.757-4.866-4.757-12.058v-161.795q0-6.692 4.91-11.808 4.909-5.115 12.166-5.115 7.258 0 12.014 5.115 4.757 5.116 4.757 11.808v64.051h313.282q7.192 0 12.058 4.91Q820-244.848 820-237.591q0 7.258-4.865 12.014-4.866 4.757-12.058 4.757H489.795v63.897q0 7.192-4.91 12.058Q479.976-140 472.719-140ZM325.027-382.256q-7.258 0-12.014-4.866-4.756-4.865-4.756-12.057v-63.898H156.923q-7.192 0-12.058-4.909-4.865-4.91-4.865-12.167t4.865-12.014q4.866-4.756 12.058-4.756h151.334v-64.205q0-7.193 4.909-12.058t12.167-4.865q7.257 0 12.013 4.865 4.757 4.865 4.757 12.058v161.949q0 7.192-4.91 12.057-4.909 4.866-12.166 4.866Zm147.845-80.821q-7.193 0-12.058-4.909-4.866-4.91-4.866-12.167t4.866-12.014q4.865-4.756 12.058-4.756h330.205q7.192 0 12.058 4.909 4.865 4.91 4.865 12.167t-4.865 12.014q-4.866 4.756-12.058 4.756H472.872Zm161.795-161.795q-7.257 0-12.013-4.865-4.757-4.866-4.757-12.058v-161.282q0-7.192 4.91-12.058Q627.716-820 634.973-820q7.258 0 12.014 4.865 4.756 4.866 4.756 12.058v63.897h151.334q7.192 0 12.058 4.91Q820-729.361 820-722.104q0 7.258-4.865 12.014-4.866 4.757-12.058 4.757H651.743v63.538q0 7.192-4.909 12.058-4.909 4.865-12.167 4.865Z"/></svg>