<svg xmlns="http://www.w3.org/2000/svg" height="40" viewBox="0 -960 960 960" width="40"><path d="M496.308-160q-7.231 0-12.077-4.882t-4.846-12.167q0-7.284 4.846-12.041 4.846-4.756 12.077-4.756h245.231q9.231 0 16.923-7.692 7.692-7.692 7.692-16.923v-523.078q0-9.231-7.692-16.923-7.692-7.692-16.923-7.692H496.308q-7.231 0-12.077-4.882-4.846-4.883-4.846-12.167t4.846-12.041Q489.077-800 496.308-800h245.231q24.577 0 41.519 16.942Q800-766.116 800-741.539v523.078q0 24.577-16.942 41.519Q766.116-160 741.539-160H496.308Zm30.641-303.077H176.923q-7.231 0-12.077-4.882Q160-472.842 160-480.126t4.846-12.041q4.846-4.756 12.077-4.756h349.718l-80.795-80.795q-4.795-4.795-5.102-11.59-.308-6.795 5.256-12.436t12.039-5.423q6.475.218 12.294 5.346l101.462 101.462q8.718 9.231 8.718 20.793 0 11.561-8.718 20.233L470.487-358.026q-4.225 4.872-11.023 5.102-6.797.23-12.904-5.332-5.304-5.641-5.265-12.167.038-6.526 5.602-12.09l80.052-80.564Z"/></svg>