<svg xmlns="http://www.w3.org/2000/svg" height="40" viewBox="0 -960 960 960" width="40"><path d="M603.898-163.077 356.769-250l-156.205 61.077q-14.41 6.359-27.487-2.038Q160-199.359 160-215.59V-704q0-10.693 5.192-19.539 5.192-8.846 14.962-12.307l176.615-61.077 247.129 86.256 155.538-60.564q14.41-6.205 27.487.961Q800-763.103 800-747.641v496.667q0 10.641-6.346 18.538-6.346 7.898-16.218 11.205l-173.538 58.154Zm-18.565-41.641v-479.333l-210.666-72.924v479.334l210.666 72.923Zm33.847 0 146.974-48.256v-486.001L619.18-684.051v479.333Zm-425.334-16.974 146.974-55.949v-479.334L193.846-707.18v485.488ZM619.18-684.051v479.333-479.333Zm-278.36-72.924v479.334-479.334Z"/></svg>