<svg xmlns="http://www.w3.org/2000/svg" height="40" viewBox="0 -960 960 960" width="40"><path d="M243.948-254.308q54.898-36.846 111.642-57.628 56.743-20.782 124.41-20.782t124.487 20.782q56.821 20.782 111.718 57.628 42.026-45.051 65.988-101.872Q806.154-413 806.154-480q0-136.385-94.885-231.269Q616.385-806.154 480-806.154t-231.269 94.885Q153.846-616.385 153.846-480q0 67 24.038 123.82 24.039 56.821 66.064 101.872Zm235.928-208.769q-50.261 0-84.581-34.444-34.321-34.445-34.321-84.706 0-50.26 34.445-84.581 34.444-34.32 84.705-34.32 50.261 0 84.581 34.444 34.321 34.445 34.321 84.705 0 50.261-34.445 84.582-34.444 34.32-84.705 34.32ZM479.73-120q-74.892 0-140.671-28.038-65.778-28.039-114.457-76.987-48.679-48.949-76.641-114.279Q120-404.634 120-480.333q0-75.187 28.038-140.773 28.039-65.586 76.987-114.202 48.949-48.615 114.279-76.654Q404.634-840 480.333-840q75.187 0 140.773 28.038 65.586 28.039 114.202 76.654Q783.923-686.692 811.962-621 840-555.308 840-480.177q0 75.643-28.038 140.923-28.039 65.28-76.654 114.229-48.616 48.948-114.394 76.987Q555.136-120 479.73-120Z"/></svg>